<svg width="126" height="50" viewBox="0 0 126 50" fill="none" xmlns="http://www.w3.org/2000/svg">
  <path d="M42.9863 19.7363C39.8869 7.08838 32.3184 -1.66044e-09 29.2278 -1.66044e-09C28.0521 0.359526 26.8097 1.45322 25.5586 3.06591C34.2326 12.7258 32.9822 29.0525 31.4462 31.0246C29.5182 33.4998 37.0235 34.9948 41.402 34.9948C45.033 34.995 45.033 28.0879 42.9863 19.7363Z" fill="#4B8BB5" />
  <path d="M34.815 30.422C33.3275 30.5542 32.0891 32.2024 30.5867 34.9955C33.9906 34.9955 40.8789 34.9955 41.3862 34.9955C38.7656 34.9955 37.8673 30.4444 34.815 30.422Z" fill="#00578F" />
  <path d="M4.45054 45.6656C9.8711 47.9272 17.4293 49.7584 17.4293 49.7584C17.4293 49.7584 12.277 47.2165 13.6009 35.7152C14.9094 24.3489 23.0051 1.90341 29.2281 0.000122068C26.5726 0.000122068 28.6495 0.000122068 20.209 0.000122068C15.9434 0.000122068 9.46515 9.63191 4.53152 21.0362C-0.649445 33.012 -2.28345 42.856 4.45054 45.6656Z" fill="#BBE1FA" />
  <path d="M16.7449 39.2251C15.722 40.7968 14.6517 41.8817 13.6204 42.6254C14.3532 47.4373 16.5783 49.2155 17.2409 49.6461L17.4296 49.7581C17.4296 49.7581 22.0142 51.8461 26.187 43.7442C30.3598 35.6423 32.2212 30.4101 35.0096 30.4101C34.0145 30.4101 27.6724 30.4101 25.2021 30.4101C20.8857 30.4103 18.7521 36.1409 16.7449 39.2251Z" fill="#8AC4E8" />
  <path d="M77.3772 30.3131H67.8844L66.1668 35.0483H63.1834L71.0486 13.9359H74.213L82.0782 35.0483H79.0948L77.3772 30.3131ZM76.4129 27.6892L72.6158 17.2838L68.849 27.6892H76.4129Z" fill="black" />
  <path d="M91.0461 32.967C93.1254 32.967 94.6322 32.0018 95.3856 30.7653L97.6156 32.0322C96.2897 34.0832 93.9995 35.4402 90.9858 35.4402C86.134 35.4402 82.9094 32.0322 82.9094 27.508C82.9094 23.0442 86.1038 19.5757 90.8049 19.5757C95.3554 19.5757 98.3086 23.3155 98.3086 27.538C98.3086 27.9301 98.2784 28.3221 98.2181 28.7144H85.5914C86.1038 31.4288 88.2434 32.967 91.0461 32.967ZM85.5916 26.4222H95.6568C95.2048 23.4363 93.0653 22.049 90.8051 22.049C87.9722 22.0488 86.0134 23.7981 85.5916 26.4222Z" fill="black" />
  <path d="M108.557 19.6972V22.4417C106.297 22.3512 103.856 23.4973 103.856 27.0563V35.0489H101.234V19.9686H103.856V22.5022C104.82 20.3907 106.659 19.6972 108.557 19.6972Z" fill="black" />
  <path d="M125.263 19.9679V35.0482H122.641V32.4543C121.436 34.2941 119.507 35.4402 116.946 35.4402C112.757 35.4402 109.321 31.9717 109.321 27.508C109.321 23.0442 112.757 19.5757 116.946 19.5757C119.507 19.5757 121.436 20.7218 122.641 22.5616V19.9678H125.263V19.9679ZM122.641 27.508C122.641 24.4315 120.321 22.1093 117.277 22.1093C114.263 22.1093 111.943 24.4315 111.943 27.508C111.943 30.5844 114.263 32.9067 117.277 32.9067C120.321 32.9068 122.641 30.5844 122.641 27.508Z" fill="black" />
</svg>
